<svg xmlns="http://www.w3.org/2000/svg" viewBox="0 0 100 100">
  <circle cx="50" cy="50" r="50" fill="#1DB954"/>
  <path d="M73 30V63.5C73 69.8 68.3 75.1 62.2 76.5C61.4 76.7 60.6 76.8 59.7 76.8C53.7 76.8 48.6 72.8 47.1 67.2C46.6 65.5 46.5 63.7 46.8 62C47.7 56.6 52.4 52.5 58 52.5C58.8 52.5 59.5 52.6 60.3 52.7V39.2L39.7 43.6V74.5C39.7 80.8 35 86.1 28.9 87.5C28.1 87.7 27.3 87.8 26.4 87.8C20.4 87.8 15.3 83.8 13.8 78.2C13.3 76.5 13.2 74.7 13.5 73C14.4 67.6 19.1 63.5 24.7 63.5C25.5 63.5 26.2 63.6 27 63.7V30L73 20V30Z" fill="white"/>
</svg>
